<svg width="10" height="10" viewBox="0 0 10 10" fill="none" xmlns="http://www.w3.org/2000/svg">
<path d="M1.07108 9.37008C1.26624 9.56524 1.58303 9.56524 1.77819 9.37008L8.8314 2.31686L8.70306 7.59011C8.69634 7.86588 8.91413 8.09534 9.19079 8.10224C9.46691 8.10895 9.69602 7.89081 9.70273 7.61468L9.84928 1.59208C9.84928 1.32479 9.74534 1.07377 9.55636 0.884796C9.36757 0.695999 9.11637 0.591877 8.83706 0.592231L2.82665 0.738601C2.55053 0.745319 2.33256 0.974599 2.3391 1.25055C2.34546 1.52667 2.57492 1.74482 2.85105 1.7381L8.13561 1.59844L1.07108 8.66297C0.87592 8.85813 0.87592 9.17492 1.07108 9.37008Z" fill="#2D2D2D"/>
</svg>
